<svg version="1.1" xmlns="http://www.w3.org/2000/svg" xmlns:xlink="http://www.w3.org/1999/xlink" width="121" height="201.66667" viewBox="0,0,121,201.66667"><g transform="translate(-177.3,-65.86333)"><g data-paper-data="{&quot;isPaintingLayer&quot;:true}" fill-rule="nonzero" stroke="#000000" stroke-width="1" stroke-linejoin="miter" stroke-miterlimit="10" stroke-dasharray="" stroke-dashoffset="0" style="mix-blend-mode: normal"><path d="M177.8,267.02999v-200.66667h120v200.66667z" fill="#ececec" stroke-linecap="butt"/><path d="M239.21429,131.7919v-52.28571h50.85714v52.28571z" fill="#00daff" stroke-linecap="butt"/><path d="M239.32381,131.7919l7.08249,-30.2362c0,0 11.63019,20.80533 16.55717,20.13398c5.7759,-0.78702 15.95803,-24.56445 15.95803,-24.56445l11.44993,34.95238z" fill="#04ff00" stroke-linecap="butt"/><path d="M278.07143,89.50618c0,3.4715 -2.87817,6.28571 -6.42857,6.28571c-3.5504,0 -6.42857,-2.81421 -6.42857,-6.28571c0,-3.4715 2.87817,-6.28571 6.42857,-6.28571c3.5504,0 6.42857,2.81421 6.42857,6.28571z" fill="#efff00" stroke-linecap="butt"/><path d="M231.21429,95.22047l-39.14286,0.57143" fill="none" stroke-linecap="round"/><path d="M229.78571,107.50618l-22.85714,0.28571" fill="none" stroke-linecap="round"/><path d="M282.64286,162.93475l-90.57143,0.57143" fill="none" stroke-linecap="round"/><path d="M283.21429,186.93475l-60,0.85714" fill="none" stroke-linecap="round"/><path d="M187.21429,228.93475v-12.85714h34.57143v12.85714z" fill="#ff0000" stroke-linecap="butt"/><path d="M238.35714,228.64904v-13.14286h40.85714v13.14286z" fill="#04ff00" stroke-linecap="butt"/><path d="M284.92857,144.07761l-60,-0.85714" fill="none" stroke-linecap="round"/></g></g></svg>